<svg xmlns="http://www.w3.org/2000/svg" width="1413.84" height="1060.493" viewBox="0 0 374.076 280.591"><g fill="#c7c8ca"><path d="M86.076 135.644a4.04 4.04 0 0 1 4.036 4.036 4.033 4.033 0 0 1-8.065 0 4.038 4.038 0 0 1 4.029-4.036M87.77 122.873a4.033 4.033 0 0 1 0 8.065 4.033 4.033 0 0 1 0-8.065M91.015 110.632c2.23 0 4.028 1.8 4.028 4.029a4.02 4.02 0 0 1-4.028 4.025 4.026 4.026 0 0 1 0-8.054M95.707 99.06a4.035 4.035 0 1 1 0 8.069 4.032 4.032 0 0 1-4.026-4.032 4.03 4.03 0 0 1 4.026-4.036M101.74 88.266a4.039 4.039 0 0 1 4.032 4.035 4.037 4.037 0 0 1-4.033 4.03 4.036 4.036 0 0 1-4.025-4.03 4.037 4.037 0 0 1 4.025-4.035M109.007 78.353a4.033 4.033 0 0 1 4.035 4.035 4.025 4.025 0 0 1-4.035 4.022 4.023 4.023 0 0 1-4.026-4.022 4.03 4.03 0 0 1 4.026-4.035M117.403 69.427a4.026 4.026 0 1 1 0 8.054 4.027 4.027 0 1 1 0-8.054M126.857 61.56a4.027 4.027 0 0 1 4.025 4.029c0 2.222-1.799 4.029-4.025 4.029a4.035 4.035 0 0 1-4.032-4.029 4.035 4.035 0 0 1 4.032-4.029M137.229 54.928a4.03 4.03 0 0 1 4.032 4.029 4.034 4.034 0 0 1-4.032 4.025 4.035 4.035 0 0 1-4.025-4.025 4.031 4.031 0 0 1 4.025-4.03M148.447 49.566a4.033 4.033 0 0 1 4.026 4.035 4.032 4.032 0 0 1-4.026 4.022 4.031 4.031 0 0 1-4.032-4.022 4.032 4.032 0 0 1 4.032-4.035M160.336 45.58a4.028 4.028 0 1 1-4.025 4.036c0-2.238 1.799-4.037 4.025-4.037M172.86 43.145a4.029 4.029 0 0 1 4.029 4.036c0 2.222-1.8 4.022-4.03 4.022a4.02 4.02 0 0 1-4.024-4.022c0-2.23 1.799-4.036 4.025-4.036M185.913 42.298c2.226 0 4.025 1.8 4.025 4.036a4.024 4.024 0 0 1-8.05 0 4.028 4.028 0 0 1 4.025-4.036M198.93 43.145a4.026 4.026 0 0 1 4.025 4.036 4.018 4.018 0 0 1-4.025 4.022 4.026 4.026 0 0 1-4.028-4.022 4.033 4.033 0 0 1 4.028-4.036M211.454 45.58a4.03 4.03 0 1 1 0 8.057 4.03 4.03 0 1 1 0-8.058M223.378 49.566a4.033 4.033 0 0 1 4.029 4.035 4.033 4.033 0 0 1-4.029 4.022 4.027 4.027 0 0 1-4.025-4.022c0-2.23 1.799-4.035 4.025-4.035M234.596 54.928a4.031 4.031 0 0 1 4.026 4.029 4.035 4.035 0 0 1-4.026 4.025 4.032 4.032 0 0 1-4.032-4.025c0-2.223 1.8-4.03 4.032-4.03M244.933 61.56a4.029 4.029 0 1 1 0 8.058 4.029 4.029 0 0 1 0-8.058M254.387 69.427a4.027 4.027 0 1 1 0 8.054 4.034 4.034 0 0 1-4.032-4.025 4.033 4.033 0 0 1 4.032-4.029M262.819 78.353c2.219 0 4.025 1.799 4.025 4.035a4.025 4.025 0 0 1-4.025 4.022c-2.23 0-4.025-1.8-4.025-4.022a4.021 4.021 0 0 1 4.025-4.035M270.086 88.266a4.037 4.037 0 0 1 4.036 4.035 4.036 4.036 0 0 1-4.036 4.03 4.033 4.033 0 0 1 0-8.065M276.119 99.06a4.028 4.028 0 0 1 4.021 4.03c0 2.23-1.802 4.039-4.021 4.039a4.033 4.033 0 1 1 0-8.068M280.81 110.632c2.223 0 4.026 1.8 4.026 4.029a4.021 4.021 0 0 1-4.025 4.025 4.022 4.022 0 0 1-4.03-4.025 4.025 4.025 0 0 1 4.03-4.029M284.056 122.873a4.03 4.03 0 0 1 4.025 4.036 4.023 4.023 0 0 1-4.025 4.022 4.024 4.024 0 0 1-4.029-4.022 4.031 4.031 0 0 1 4.03-4.036M285.714 135.644a4.035 4.035 0 0 1 4.025 4.036 4.027 4.027 0 1 1-8.054 0c0-2.223 1.8-4.036 4.03-4.036M96.73 135.644a4.036 4.036 0 0 1 4.029 4.036 4.03 4.03 0 0 1-4.03 4.029 4.034 4.034 0 0 1-4.028-4.03 4.04 4.04 0 0 1 4.029-4.035M98.388 123.826a4.032 4.032 0 0 1 4.032 4.036 4.024 4.024 0 0 1-4.032 4.021 4.022 4.022 0 0 1-4.022-4.021 4.03 4.03 0 0 1 4.022-4.036M101.563 112.537a4.033 4.033 0 0 1 4.036 4.036 4.025 4.025 0 0 1-4.036 4.021 4.02 4.02 0 0 1-4.022-4.021c0-2.23 1.8-4.036 4.022-4.036M106.114 101.918a4.04 4.04 0 0 1 4.028 4.036 4.028 4.028 0 1 1-4.029-4.036M111.935 92.04a4.033 4.033 0 0 1 0 8.065 4.03 4.03 0 0 1-4.026-4.025c0-2.226 1.807-4.04 4.026-4.04M118.955 83.045a4.027 4.027 0 0 1 0 8.054 4.024 4.024 0 0 1-4.032-4.019 4.03 4.03 0 0 1 4.032-4.035M127.034 75.036c2.226 0 4.025 1.8 4.025 4.03a4.026 4.026 0 0 1-8.05 0c0-2.23 1.799-4.03 4.025-4.03M136.065 68.051a4.04 4.04 0 0 1 4.032 4.04 4.024 4.024 0 0 1-4.032 4.018 4.02 4.02 0 0 1-4.025-4.018c0-2.226 1.802-4.04 4.025-4.04M145.978 62.301c2.226 0 4.036 1.8 4.036 4.029a4.036 4.036 0 0 1-4.036 4.029 4.027 4.027 0 0 1-4.025-4.03c0-2.229 1.799-4.028 4.025-4.028M156.632 57.785a4.036 4.036 0 0 1 4.029 4.036 4.027 4.027 0 1 1-8.054 0 4.037 4.037 0 0 1 4.025-4.036M167.92 54.716c2.227 0 4.026 1.8 4.026 4.036a4.02 4.02 0 0 1-4.025 4.022c-2.23 0-4.032-1.8-4.032-4.022a4.027 4.027 0 0 1 4.032-4.036M179.774 53.093a4.029 4.029 0 0 1 4.029 4.036c0 2.223-1.8 4.022-4.029 4.022a4.025 4.025 0 0 1-4.025-4.022 4.033 4.033 0 0 1 4.025-4.036M191.98 53.093a4.031 4.031 0 0 1 4.026 4.03 4.024 4.024 0 0 1-4.026 4.024 4.023 4.023 0 0 1-4.032-4.025 4.03 4.03 0 0 1 4.032-4.029M203.834 54.716a4.031 4.031 0 0 1 4.025 4.04 4.028 4.028 0 0 1-8.057 0 4.035 4.035 0 0 1 4.032-4.04M215.158 57.785a4.032 4.032 0 0 1 4.029 4.03 4.032 4.032 0 0 1-4.029 4.028 4.024 4.024 0 0 1-4.025-4.029 4.024 4.024 0 0 1 4.025-4.029M225.812 62.266a4.033 4.033 0 0 1 0 8.064 4.027 4.027 0 0 1-4.029-4.028c0-2.23 1.8-4.036 4.03-4.036M235.725 68.051a4.033 4.033 0 0 1 4.029 4.036 4.026 4.026 0 0 1-4.029 4.022c-2.23 0-4.036-1.8-4.036-4.022a4.035 4.035 0 0 1 4.036-4.036M244.756 75.001a4.027 4.027 0 0 1 0 8.054 4.02 4.02 0 0 1-4.025-4.018A4.026 4.026 0 0 1 244.756 75M252.835 83.045a4.036 4.036 0 0 1 4.029 4.035 4.034 4.034 0 0 1-4.029 4.03 4.037 4.037 0 0 1-4.032-4.03 4.039 4.039 0 0 1 4.032-4.035M259.82 92.04a4.035 4.035 0 0 1 0 8.068 4.028 4.028 0 0 1-4.032-4.028 4.028 4.028 0 0 1 4.032-4.04M265.676 101.918a4.027 4.027 0 0 1 0 8.054 4.027 4.027 0 1 1 0-8.054M270.192 112.537a4.033 4.033 0 0 1 4.025 4.036 4.022 4.022 0 0 1-4.025 4.018 4.024 4.024 0 0 1-4.036-4.018 4.035 4.035 0 0 1 4.036-4.036M273.367 123.826a4.036 4.036 0 0 1 4.032 4.036 4.035 4.035 0 0 1-4.032 4.029 4.036 4.036 0 0 1-4.029-4.03 4.038 4.038 0 0 1 4.029-4.035M275.06 135.644a4.033 4.033 0 0 1 0 8.065 4.03 4.03 0 0 1-4.032-4.03 4.036 4.036 0 0 1 4.032-4.035M107.348 135.644a4.039 4.039 0 0 1 4.033 4.036 4.029 4.029 0 0 1-8.058 0 4.035 4.035 0 0 1 4.025-4.036M109.571 122.52a4.04 4.04 0 0 1 4.032 4.04 4.03 4.03 0 0 1-8.057 0c0-2.226 1.802-4.04 4.025-4.04M113.875 110.244a4.03 4.03 0 0 1 4.032 4.036 4.024 4.024 0 0 1-4.032 4.018 4.02 4.02 0 0 1-4.025-4.018 4.026 4.026 0 0 1 4.025-4.036M120.049 98.99a4.033 4.033 0 0 1 0 8.065 4.039 4.039 0 0 1-4.03-4.029 4.04 4.04 0 0 1 4.03-4.036M127.916 88.971c2.23 0 4.032 1.8 4.032 4.029a4.036 4.036 0 0 1-4.032 4.036A4.041 4.041 0 0 1 123.883 93a4.03 4.03 0 0 1 4.033-4.029M137.264 80.293c2.223 0 4.025 1.799 4.025 4.029a4.031 4.031 0 0 1-4.025 4.028 4.037 4.037 0 0 1-4.032-4.028 4.03 4.03 0 0 1 4.032-4.03M147.953 73.237a4.027 4.027 0 0 1 4.03 4.036 4.02 4.02 0 0 1-4.03 4.022 4.026 4.026 0 0 1-4.028-4.022 4.033 4.033 0 0 1 4.028-4.036M159.736 67.98a4.029 4.029 0 0 1 4.026 4.03 4.021 4.021 0 0 1-4.026 4.025 4.032 4.032 0 0 1-4.032-4.025 4.04 4.04 0 0 1 4.032-4.03M172.436 64.665a4.028 4.028 0 0 1 4.026 4.035c0 2.212-1.8 4.022-4.026 4.022a4.033 4.033 0 0 1-4.032-4.022 4.034 4.034 0 0 1 4.032-4.035M185.877 63.5a4.036 4.036 0 0 1 4.033 4.036 4.024 4.024 0 0 1-4.033 4.022 4.028 4.028 0 0 1-4.028-4.022 4.04 4.04 0 0 1 4.028-4.036M199.354 64.665a4.031 4.031 0 0 1 4.028 4.035 4.027 4.027 0 0 1-8.054 0c0-2.23 1.81-4.035 4.026-4.035M212.054 67.946a4.032 4.032 0 0 1 4.028 4.028 4.027 4.027 0 0 1-4.028 4.029 4.031 4.031 0 0 1-4.036-4.029 4.036 4.036 0 0 1 4.036-4.028M223.837 73.237a4.035 4.035 0 0 1 4.032 4.029 4.026 4.026 0 0 1-4.032 4.029 4.03 4.03 0 0 1-4.033-4.029 4.04 4.04 0 0 1 4.033-4.029M234.49 80.293c2.23 0 4.03 1.799 4.03 4.036 0 2.212-1.8 4.021-4.03 4.021a4.028 4.028 0 0 1 0-8.058M243.875 88.936a4.036 4.036 0 0 1 4.028 4.029 4.024 4.024 0 0 1-4.028 4.025 4.03 4.03 0 0 1-4.033-4.025 4.042 4.042 0 0 1 4.033-4.029M251.706 98.99c2.23 0 4.033 1.8 4.033 4.029a4.03 4.03 0 0 1-4.033 4.029 4.035 4.035 0 0 1-4.032-4.029 4.03 4.03 0 0 1 4.032-4.029M257.88 110.244a4.032 4.032 0 1 1 0 8.064 4.032 4.032 0 0 1 0-8.064M262.184 122.52a4.046 4.046 0 0 1 4.04 4.04c0 2.223-1.814 4.025-4.04 4.025a4.03 4.03 0 0 1-4.025-4.025c0-2.226 1.81-4.04 4.025-4.04M264.406 135.644a4.036 4.036 0 0 1 4.033 4.036 4.03 4.03 0 0 1-8.061 0 4.04 4.04 0 0 1 4.028-4.036M118.002 135.644a4.03 4.03 0 0 1 4.026 4.036 4.024 4.024 0 1 1-8.05 0c0-2.223 1.798-4.036 4.024-4.036M120.437 123.085a4.027 4.027 0 0 1 4.028 4.036 4.02 4.02 0 0 1-4.028 4.022 4.02 4.02 0 0 1-4.026-4.022c0-2.23 1.8-4.036 4.026-4.036M125.058 111.479a4.031 4.031 0 0 1 4.025 4.039 4.027 4.027 0 0 1-4.025 4.018c-2.23 0-4.036-1.806-4.036-4.018a4.036 4.036 0 0 1 4.036-4.04M131.655 101.001a4.033 4.033 0 0 1 4.025 4.036 4.025 4.025 0 0 1-4.025 4.022c-2.23 0-4.04-1.8-4.04-4.022 0-2.23 1.81-4.036 4.04-4.036M139.945 91.935a4.027 4.027 0 0 1 4.026 4.039 4.024 4.024 0 0 1-4.026 4.025 4.029 4.029 0 0 1-4.028-4.025 4.032 4.032 0 0 1 4.028-4.04M149.753 84.49a4.027 4.027 0 0 1 4.028 4.03 4.027 4.027 0 1 1-8.054 0 4.031 4.031 0 0 1 4.026-4.03M160.83 78.882a4.027 4.027 0 0 1 0 8.054 4.021 4.021 0 0 1-4.025-4.026 4.02 4.02 0 0 1 4.025-4.028M172.966 75.354a4.03 4.03 0 0 1 4.032 4.029 4.026 4.026 0 0 1-4.032 4.028 4.028 4.028 0 1 1 0-8.057M185.913 74.12a4.033 4.033 0 0 1 0 8.068 4.04 4.04 0 0 1-4.033-4.033 4.043 4.043 0 0 1 4.033-4.036M198.86 75.354a4.027 4.027 0 0 1 4.025 4.029c0 2.23-1.8 4.028-4.025 4.028a4.033 4.033 0 0 1-4.033-4.028 4.037 4.037 0 0 1 4.033-4.03M210.995 78.882a4.02 4.02 0 0 1 4.026 4.028 4.026 4.026 0 0 1-8.05 0 4.024 4.024 0 0 1 4.024-4.028M222.073 84.49a4.024 4.024 0 0 1 4.025 4.03 4.02 4.02 0 0 1-4.025 4.028c-2.23 0-4.033-1.799-4.033-4.028a4.03 4.03 0 0 1 4.033-4.03M231.88 91.935a4.027 4.027 0 0 1 4.029 4.039 4.024 4.024 0 0 1-4.029 4.025 4.026 4.026 0 0 1-4.025-4.025c0-2.233 1.799-4.04 4.025-4.04M240.17 101.001a4.028 4.028 0 0 1 4.026 4.036 4.02 4.02 0 0 1-4.026 4.022 4.02 4.02 0 0 1-4.028-4.022A4.027 4.027 0 0 1 240.17 101M246.767 111.479a4.031 4.031 0 0 1 4.026 4.039 4.027 4.027 0 0 1-4.026 4.018c-2.23 0-4.036-1.806-4.036-4.018a4.036 4.036 0 0 1 4.036-4.04M251.389 123.085a4.03 4.03 0 0 1 4.021 4.036 4.022 4.022 0 0 1-4.021 4.022c-2.226 0-4.04-1.8-4.04-4.022a4.04 4.04 0 0 1 4.04-4.036M253.788 135.644a4.033 4.033 0 0 1 0 8.065 4.034 4.034 0 0 1-4.03-4.03 4.04 4.04 0 0 1 4.03-4.035"/></g><g fill="#6eaadc"><path d="M128.798 135.644a4.037 4.037 0 0 1 4.025 4.036 4.031 4.031 0 0 1-4.025 4.029 4.03 4.03 0 0 1-4.033-4.03 4.036 4.036 0 0 1 4.033-4.035M131.443 123.826a4.033 4.033 0 0 1 4.026 4.036 4.02 4.02 0 0 1-4.026 4.021 4.024 4.024 0 0 1-4.028-4.021 4.036 4.036 0 0 1 4.028-4.036M136.418 113.03c2.226 0 4.028 1.8 4.028 4.037a4.031 4.031 0 0 1-8.061 0 4.03 4.03 0 0 1 4.033-4.036M143.367 103.576a4.03 4.03 0 0 1 4.026 4.036 4.025 4.025 0 0 1-4.026 4.032 4.03 4.03 0 0 1-4.028-4.032 4.036 4.036 0 0 1 4.028-4.036M152.081 95.745a4.033 4.033 0 0 1 0 8.064 4.031 4.031 0 0 1-4.029-4.025 4.034 4.034 0 0 1 4.029-4.04M162.241 89.818a4.035 4.035 0 0 1 4.025 4.036 4.029 4.029 0 0 1-8.057 0 4.036 4.036 0 0 1 4.032-4.036M173.6 86.043a4.027 4.027 0 0 1 4.026 4.029 4.027 4.027 0 1 1-8.054 0 4.032 4.032 0 0 1 4.029-4.029M185.913 84.738c2.23 0 4.025 1.8 4.025 4.04a4.022 4.022 0 0 1-4.025 4.017c-2.226 0-4.033-1.806-4.033-4.018a4.03 4.03 0 0 1 4.033-4.04M198.19 86.043a4.031 4.031 0 0 1 4.025 4.029 4.031 4.031 0 0 1-8.061 0 4.031 4.031 0 0 1 4.035-4.029M209.549 89.818a4.026 4.026 0 0 1 4.025 4.036 4.024 4.024 0 0 1-4.025 4.028 4.028 4.028 0 0 1-4.022-4.028 4.03 4.03 0 0 1 4.022-4.036M219.744 95.745a4.033 4.033 0 0 1 0 8.064 4.033 4.033 0 1 1 0-8.065M228.458 103.576a4.033 4.033 0 0 1 0 8.065 4.026 4.026 0 0 1-4.032-4.029 4.03 4.03 0 0 1 4.032-4.036M235.408 113.03a4.027 4.027 0 0 1 4.021 4.037 4.03 4.03 0 0 1-4.021 4.028 4.04 4.04 0 0 1-4.033-4.028c0-2.23 1.81-4.036 4.033-4.036M240.382 123.79a4.039 4.039 0 0 1 4.029 4.04 4.027 4.027 0 0 1-4.029 4.025 4.027 4.027 0 0 1-4.032-4.025 4.04 4.04 0 0 1 4.032-4.04M243.063 135.644a4.036 4.036 0 0 1 4.029 4.036 4.03 4.03 0 0 1-8.058 0 4.036 4.036 0 0 1 4.03-4.036M139.451 135.644a4.033 4.033 0 0 1 0 8.065 4.032 4.032 0 0 1 0-8.065M142.768 123.826a4.03 4.03 0 0 1 4.025 4.036 4.025 4.025 0 0 1-4.025 4.032 4.03 4.03 0 0 1-4.03-4.032 4.036 4.036 0 0 1 4.03-4.036M148.87 113.454a4.029 4.029 0 0 1 0 8.058 4.029 4.029 0 1 1 0-8.058M157.337 105.058c2.226 0 4.026 1.8 4.026 4.036 0 2.212-1.8 4.022-4.026 4.022s-4.039-1.81-4.039-4.022a4.036 4.036 0 0 1 4.04-4.036M167.744 98.99a4.024 4.024 0 0 1 4.026 4.029 4.02 4.02 0 0 1-4.026 4.029 4.03 4.03 0 0 1-4.032-4.029 4.035 4.035 0 0 1 4.032-4.029M179.598 95.78a4.032 4.032 0 0 1 4.029 4.04 4.023 4.023 0 0 1-4.03 4.017 4.024 4.024 0 0 1-4.024-4.018 4.033 4.033 0 0 1 4.025-4.04M192.298 95.78a4.032 4.032 0 0 1 4.029 4.04 4.029 4.029 0 0 1-4.029 4.024 4.035 4.035 0 0 1-4.036-4.025c0-2.233 1.81-4.04 4.036-4.04M204.151 99.025c2.234 0 4.026 1.8 4.026 4.03a4.022 4.022 0 0 1-4.026 4.028 4.03 4.03 0 0 1-4.032-4.029 4.026 4.026 0 0 1 4.032-4.029M214.558 105.058a4.032 4.032 0 0 1 4.03 4.029 4.034 4.034 0 0 1-4.03 4.029 4.037 4.037 0 0 1-4.032-4.03 4.035 4.035 0 0 1 4.032-4.028M223.025 113.49c2.23 0 4.029 1.799 4.029 4.028 0 2.223-1.8 4.025-4.029 4.025a4.024 4.024 0 0 1-4.029-4.025c0-2.23 1.8-4.029 4.03-4.029M229.164 123.826a4.036 4.036 0 0 1 4.032 4.036 4.04 4.04 0 0 1-4.032 4.029 4.039 4.039 0 0 1-4.03-4.03c0-2.229 1.81-4.035 4.03-4.035M232.48 135.644a4.04 4.04 0 0 1 4.035 4.036 4.033 4.033 0 0 1-4.035 4.029 4.029 4.029 0 0 1-4.026-4.03 4.035 4.035 0 0 1 4.026-4.035M150.176 135.644a4.032 4.032 0 0 1 0 8.065 4.03 4.03 0 0 1-4.032-4.03 4.036 4.036 0 0 1 4.032-4.035M153.915 125.096a4.04 4.04 0 0 1 4.036 4.04c0 2.211-1.806 4.017-4.036 4.017-2.219 0-4.032-1.806-4.032-4.018a4.044 4.044 0 0 1 4.032-4.039M160.512 116.312a4.033 4.033 0 0 1 0 8.064 4.032 4.032 0 1 1 0-8.064M169.438 109.891a4.036 4.036 0 0 1 4.029 4.04 4.027 4.027 0 0 1-4.03 4.025 4.027 4.027 0 0 1-4.028-4.026 4.036 4.036 0 0 1 4.029-4.039M180.092 106.434a4.03 4.03 0 0 1 0 8.057 4.031 4.031 0 0 1-4.032-4.021 4.034 4.034 0 0 1 4.032-4.036M191.734 106.434a4.03 4.03 0 0 1 4.025 4.036 4.029 4.029 0 1 1-4.025-4.036M202.388 109.891c2.219 0 4.025 1.813 4.025 4.04a4.028 4.028 0 0 1-4.025 4.025 4.024 4.024 0 0 1-4.026-4.026c0-2.226 1.8-4.039 4.026-4.039M211.313 116.312a4.033 4.033 0 0 1 0 8.065 4.029 4.029 0 0 1-4.029-4.037c0-2.215 1.8-4.028 4.029-4.028M217.91 125.096a4.033 4.033 0 0 1 4.025 4.036 4.02 4.02 0 0 1-4.025 4.021c-2.23 0-4.032-1.799-4.032-4.021a4.036 4.036 0 0 1 4.032-4.036M221.65 135.644c2.215 0 4.025 1.813 4.025 4.036a4.033 4.033 0 0 1-4.026 4.029 4.033 4.033 0 0 1 0-8.065M161.042 135.644a4.035 4.035 0 0 1 4.025 4.036 4.029 4.029 0 0 1-4.025 4.029 4.032 4.032 0 0 1 0-8.065M167.639 124.179a4.038 4.038 0 0 1 4.035 4.04 4.03 4.03 0 0 1-8.06 0c0-2.227 1.806-4.04 4.025-4.04M179.033 117.511a4.026 4.026 0 1 1 0 8.054 4.037 4.037 0 0 1-4.025-4.025c0-2.23 1.81-4.029 4.025-4.029M192.792 117.511c2.23 0 4.04 1.806 4.04 4.036 0 2.215-1.81 4.018-4.04 4.018a4.027 4.027 0 0 1 0-8.054M204.222 124.179a4.037 4.037 0 0 1 4.043 4.028 4.034 4.034 0 0 1-4.043 4.026 4.028 4.028 0 0 1-4.025-4.026 4.031 4.031 0 0 1 4.025-4.028M210.854 135.644a4.035 4.035 0 0 1 4.025 4.036 4.029 4.029 0 0 1-4.025 4.029 4.032 4.032 0 0 1 0-8.065M328.189 135.644a4.033 4.033 0 0 1 0 8.065 4.03 4.03 0 0 1-4.032-4.03 4.036 4.036 0 0 1 4.032-4.035M327.025 122.838a4.03 4.03 0 0 1 4.025 4.036 4.022 4.022 0 0 1-4.025 4.029 4.03 4.03 0 0 1-4.032-4.029 4.039 4.039 0 0 1 4.032-4.036M324.767 110.385a4.03 4.03 0 0 1 4.029 4.04 4.03 4.03 0 0 1-8.061 0 4.035 4.035 0 0 1 4.032-4.04M321.45 98.355a4.027 4.027 0 0 1 4.026 4.04 4.028 4.028 0 0 1-4.025 4.025 4.037 4.037 0 0 1-4.032-4.025 4.035 4.035 0 0 1 4.032-4.04M317.112 86.749a4.04 4.04 0 0 1 4.036 4.036 4.027 4.027 0 0 1-4.036 4.021 4.023 4.023 0 0 1-4.025-4.021 4.035 4.035 0 0 1 4.025-4.036M311.82 75.671a4.028 4.028 0 0 1 4.025 4.036 4.031 4.031 0 0 1-8.064 0 4.036 4.036 0 0 1 4.039-4.036M305.646 65.123a4.03 4.03 0 1 1-4.036 4.025 4.026 4.026 0 0 1 4.036-4.025M298.626 55.175a4.033 4.033 0 0 1 0 8.065 4.037 4.037 0 0 1-4.036-4.036 4.036 4.036 0 0 1 4.036-4.03M290.794 45.897a4.024 4.024 0 0 1 4.022 4.028 4.024 4.024 0 0 1-4.022 4.03 4.031 4.031 0 0 1-4.036-4.03 4.031 4.031 0 0 1 4.036-4.028M282.186 37.324a4.03 4.03 0 0 1 4.026 4.036 4.023 4.023 0 0 1-4.026 4.022 4.029 4.029 0 0 1-4.032-4.022 4.036 4.036 0 0 1 4.032-4.036M272.908 29.492a4.031 4.031 0 0 1 4.03 4.036 4.028 4.028 0 1 1-8.055 0c0-2.222 1.8-4.036 4.025-4.036M262.96 22.472a4.032 4.032 0 1 1 0 8.064 4.032 4.032 0 0 1 0-8.064M252.412 16.298a4.026 4.026 0 0 1 4.021 4.04 4.023 4.023 0 0 1-4.021 4.025 4.037 4.037 0 0 1-4.032-4.025 4.04 4.04 0 0 1 4.032-4.04M241.334 11.042a4.036 4.036 0 0 1 4.026 4.029 4.033 4.033 0 0 1-4.026 4.029 4.03 4.03 0 0 1-4.032-4.03c0-2.215 1.8-4.028 4.032-4.028M229.728 6.703a4.022 4.022 0 0 1 4.025 4.029 4.028 4.028 0 0 1-4.025 4.035 4.037 4.037 0 0 1-4.025-4.035 4.031 4.031 0 0 1 4.025-4.03M217.698 3.387a4.03 4.03 0 0 1 4.025 4.036 4.028 4.028 0 1 1-4.025-4.036M205.245 1.129a4.026 4.026 0 0 1 4.025 4.036 4.029 4.029 0 0 1-4.025 4.028 4.033 4.033 0 0 1 0-8.064M192.44 0a4.036 4.036 0 0 1 4.028 4.036 4.034 4.034 0 0 1-4.029 4.029 4.037 4.037 0 0 1-4.032-4.03A4.039 4.039 0 0 1 192.439 0M179.386 0a4.029 4.029 0 0 1 4.029 4.036 4.027 4.027 0 1 1-8.054 0A4.03 4.03 0 0 1 179.386 0M166.58 1.129a4.026 4.026 0 0 1 4.026 4.036 4.029 4.029 0 0 1-4.026 4.028 4.032 4.032 0 1 1 0-8.065M154.127 3.387a4.03 4.03 0 0 1 4.025 4.036 4.023 4.023 0 0 1-4.025 4.021 4.026 4.026 0 0 1-4.029-4.021c0-2.223 1.8-4.036 4.03-4.036M142.097 6.703a4.033 4.033 0 0 1 0 8.065 4.04 4.04 0 0 1-4.035-4.036 4.033 4.033 0 0 1 4.035-4.03M130.49 11.042a4.033 4.033 0 0 1 4.026 4.036 4.02 4.02 0 0 1-4.025 4.022 4.027 4.027 0 0 1-4.032-4.022 4.039 4.039 0 0 1 4.032-4.036M119.414 16.298c2.222 0 4.025 1.8 4.025 4.04a4.027 4.027 0 0 1-4.025 4.018 4.026 4.026 0 0 1-4.033-4.018c0-2.24 1.8-4.04 4.033-4.04M108.865 22.472a4.033 4.033 0 0 1 0 8.065 4.032 4.032 0 0 1 0-8.065M98.917 29.492a4.033 4.033 0 0 1 4.025 4.036 4.03 4.03 0 0 1-4.025 4.033 4.036 4.036 0 0 1-4.032-4.033 4.039 4.039 0 0 1 4.032-4.036M89.639 37.324a4.028 4.028 0 0 1 4.025 4.036 4.029 4.029 0 1 1-4.025-4.036M81.031 45.897a4.034 4.034 0 0 1 4.029 4.028 4.03 4.03 0 0 1-8.058 0c0-2.215 1.8-4.028 4.029-4.028M73.2 55.21a4.027 4.027 0 0 1 4.028 4.029 4.027 4.027 0 1 1-8.054 0c0-2.223 1.8-4.029 4.025-4.029M66.179 65.123a4.02 4.02 0 0 1 4.025 4.026 4.027 4.027 0 1 1-8.054 0c0-2.227 1.8-4.026 4.029-4.026M60.005 75.671c2.23 0 4.03 1.8 4.03 4.036 0 2.216-1.8 4.022-4.03 4.022a4.029 4.029 0 1 1 0-8.058M54.714 86.749a4.033 4.033 0 0 1 4.025 4.036 4.02 4.02 0 0 1-4.025 4.021 4.02 4.02 0 0 1-4.026-4.021c0-2.223 1.8-4.036 4.026-4.036M50.374 98.355a4.033 4.033 0 0 1 0 8.065 4.027 4.027 0 0 1-4.032-4.025 4.033 4.033 0 0 1 4.032-4.04M47.058 110.42c2.226 0 4.025 1.8 4.025 4.036 0 2.212-1.799 4.022-4.025 4.022a4.03 4.03 0 0 1 0-8.058M44.8 122.873c2.223 0 4.026 1.8 4.026 4.03a4.026 4.026 0 0 1-4.026 4.024 4.024 4.024 0 0 1-4.028-4.025c0-2.23 1.799-4.029 4.028-4.029M43.495 135.644a4.035 4.035 0 0 1 4.025 4.036 4.031 4.031 0 1 1-4.025-4.036M317.57 135.644a4.033 4.033 0 0 1 0 8.065 4.031 4.031 0 0 1-4.025-4.03 4.037 4.037 0 0 1 4.025-4.035M316.37 123.156a4.031 4.031 0 0 1 4.026 4.028 4.031 4.031 0 0 1-4.025 4.03 4.029 4.029 0 0 1 0-8.058M314.007 110.985c2.226 0 4.025 1.799 4.025 4.036 0 2.215-1.799 4.028-4.025 4.028a4.03 4.03 0 0 1-4.028-4.028 4.022 4.022 0 0 1 4.028-4.036M310.55 99.272a4.03 4.03 0 0 1 4.025 4.036 4.024 4.024 0 0 1-4.025 4.018c-2.215 0-4.029-1.802-4.029-4.018a4.038 4.038 0 0 1 4.029-4.036M306.105 88.054a4.033 4.033 0 0 1 0 8.065 4.027 4.027 0 0 1-4.025-4.03c0-2.229 1.799-4.035 4.025-4.035M300.637 77.33a4.036 4.036 0 0 1 4.029 4.035 4.03 4.03 0 0 1-4.03 4.029 4.029 4.029 0 0 1-4.024-4.029 4.035 4.035 0 0 1 4.025-4.036M294.287 67.24a4.033 4.033 0 0 1 4.032 4.029 4.035 4.035 0 0 1-4.032 4.028 4.029 4.029 0 0 1 0-8.058M287.055 57.75a4.039 4.039 0 0 1 4.032 4.036 4.036 4.036 0 0 1-4.032 4.032 4.03 4.03 0 0 1-4.025-4.032c0-2.223 1.799-4.036 4.025-4.036M279.011 49.001a4.035 4.035 0 0 1 4.036 4.036 4.032 4.032 0 0 1-4.036 4.022 4.032 4.032 0 0 1-4.025-4.022c0-2.23 1.81-4.036 4.025-4.036M270.262 40.958a4.035 4.035 0 0 1 4.033 4.04 4.037 4.037 0 0 1-4.033 4.024 4.027 4.027 0 0 1-4.021-4.025 4.026 4.026 0 0 1 4.021-4.04M260.773 33.761c2.226 0 4.028 1.8 4.028 4.029a4.033 4.033 0 0 1-4.028 4.025 4.03 4.03 0 0 1-4.022-4.025c0-2.23 1.8-4.029 4.022-4.029M250.648 27.411a4.036 4.036 0 0 1 4.032 4.036 4.03 4.03 0 0 1-8.058 0 4.035 4.035 0 0 1 4.026-4.036M239.923 22.014c2.226 0 4.03 1.799 4.03 4.035a4.03 4.03 0 0 1-4.03 4.022 4.029 4.029 0 0 1 0-8.058M228.67 17.568a4.032 4.032 0 0 1 4.039 4.03 4.034 4.034 0 0 1-4.04 4.028 4.038 4.038 0 0 1-4.025-4.029 4.036 4.036 0 0 1 4.026-4.029M216.957 14.147a4.037 4.037 0 0 1 4.033 4.039 4.033 4.033 0 0 1-4.033 4.029 4.033 4.033 0 0 1 0-8.068M204.822 11.783a4.037 4.037 0 0 1 4.036 4.036 4.039 4.039 0 0 1-4.036 4.032c-2.22 0-4.026-1.817-4.026-4.032a4.037 4.037 0 0 1 4.026-4.036M192.298 10.619a4.036 4.036 0 0 1 4.032 4.036 4.029 4.029 0 0 1-4.032 4.021 4.031 4.031 0 0 1-4.032-4.021 4.039 4.039 0 0 1 4.032-4.036M179.527 10.619a4.033 4.033 0 0 1 4.026 4.036c0 2.215-1.8 4.021-4.026 4.021-2.219 0-4.032-1.806-4.032-4.021a4.043 4.043 0 0 1 4.032-4.036M167.004 11.783a4.039 4.039 0 0 1 4.032 4.036 4.04 4.04 0 0 1-4.032 4.032 4.034 4.034 0 0 1 0-8.068M154.868 14.147a4.034 4.034 0 0 1 0 8.068 4.033 4.033 0 0 1 0-8.068M143.12 17.568a4.028 4.028 0 1 1 0 8.058 4.029 4.029 0 0 1 0-8.058M131.902 22.014a4.03 4.03 0 0 1 4.036 4.035 4.033 4.033 0 0 1-8.065 0 4.029 4.029 0 0 1 4.029-4.035M121.177 27.411a4.04 4.04 0 0 1 4.036 4.036 4.032 4.032 0 0 1-4.036 4.022 4.027 4.027 0 0 1-4.025-4.022 4.035 4.035 0 0 1 4.025-4.036M111.053 33.761c2.226 0 4.025 1.8 4.025 4.029 0 2.222-1.8 4.025-4.025 4.025a4.027 4.027 0 1 1 0-8.054M101.563 40.958a4.035 4.035 0 0 1 4.032 4.04 4.037 4.037 0 0 1-4.032 4.024 4.03 4.03 0 0 1-4.025-4.025c0-2.233 1.799-4.04 4.025-4.04M92.779 49.001a4.033 4.033 0 0 1 4.025 4.036 4.03 4.03 0 0 1-4.025 4.022 4.027 4.027 0 0 1-4.026-4.022 4.03 4.03 0 0 1 4.026-4.036M84.77 57.75a4.034 4.034 0 0 1 4.033 4.036 4.037 4.037 0 0 1-4.032 4.029 4.04 4.04 0 0 1-4.033-4.029c0-2.23 1.81-4.036 4.033-4.036M77.539 67.24a4.029 4.029 0 0 1 0 8.057 4.025 4.025 0 0 1-4.026-4.021c0-2.23 1.8-4.036 4.026-4.036M71.188 77.33a4.036 4.036 0 0 1 4.033 4.035 4.03 4.03 0 0 1-4.033 4.029 4.037 4.037 0 0 1-4.032-4.029 4.043 4.043 0 0 1 4.032-4.036M65.72 88.054c2.223 0 4.026 1.8 4.026 4.036a4.025 4.025 0 0 1-8.05 0c0-2.237 1.798-4.036 4.024-4.036M61.275 99.272c2.23 0 4.03 1.8 4.03 4.036 0 2.216-1.8 4.018-4.03 4.018a4.027 4.027 0 0 1 0-8.054M57.818 111.02a4.023 4.023 0 0 1 4.029 4.029 4.033 4.033 0 0 1-4.029 4.025c-2.219 0-4.032-1.813-4.032-4.025a4.03 4.03 0 0 1 4.032-4.029M55.454 123.156a4.028 4.028 0 1 1 0 8.058 4.031 4.031 0 0 1-4.032-4.023 4.034 4.034 0 0 1 4.032-4.035M54.22 135.644a4.031 4.031 0 1 1-4.025 4.036c0-2.223 1.81-4.036 4.025-4.036M307.022 135.644c2.22 0 4.022 1.813 4.022 4.036a4.028 4.028 0 0 1-4.022 4.029 4.033 4.033 0 0 1 0-8.065M305.682 123.473a4.039 4.039 0 0 1 4.032 4.036 4.03 4.03 0 0 1-8.058 0c0-2.219 1.803-4.036 4.026-4.036M303.212 111.655a4.036 4.036 0 0 1 4.032 4.036 4.029 4.029 0 1 1-4.032-4.036M299.65 100.33c2.225 0 4.024 1.814 4.024 4.047 0 2.212-1.799 4.018-4.025 4.018a4.03 4.03 0 0 1-4.029-4.018c0-2.233 1.807-4.046 4.03-4.046M295.028 89.465a4.033 4.033 0 0 1 4.035 4.036 4.025 4.025 0 0 1-4.035 4.022 4.025 4.025 0 0 1-4.026-4.022 4.033 4.033 0 0 1 4.026-4.036M289.418 79.2a4.03 4.03 0 0 1 4.033 4.028 4.03 4.03 0 0 1-4.033 4.029 4.033 4.033 0 0 1-4.025-4.029 4.033 4.033 0 0 1 4.025-4.029M282.892 69.568a4.037 4.037 0 0 1 4.036 4.036c0 2.216-1.81 4.022-4.036 4.022a4.03 4.03 0 0 1 0-8.058M275.484 60.643a4.029 4.029 0 0 1 0 8.057c-2.22 0-4.033-1.806-4.033-4.021a4.034 4.034 0 0 1 4.033-4.036M267.264 52.423a4.03 4.03 0 1 1 0 8.058 4.03 4.03 0 0 1-4.025-4.022 4.033 4.033 0 0 1 4.025-4.036M258.303 45.05a4.027 4.027 0 0 1 4.022 4.036c0 2.222-1.8 4.018-4.022 4.018a4.024 4.024 0 0 1-4.032-4.018 4.034 4.034 0 0 1 4.032-4.036M248.637 38.559a4.027 4.027 0 1 1 0 8.054 4.028 4.028 0 0 1-4.025-4.025 4.031 4.031 0 0 1 4.025-4.03M238.371 32.985c2.23 0 4.036 1.8 4.036 4.029a4.04 4.04 0 0 1-4.036 4.036 4.037 4.037 0 0 1-4.025-4.036 4.027 4.027 0 0 1 4.025-4.029M227.505 28.399a4.032 4.032 0 0 1 4.033 4.025 4.036 4.036 0 0 1-4.033 4.032 4.028 4.028 0 0 1 0-8.058M216.146 24.871a4.031 4.031 0 0 1 4.029 4.036 4.024 4.024 0 0 1-4.029 4.022 4.023 4.023 0 0 1-4.025-4.022 4.03 4.03 0 0 1 4.025-4.036M204.328 22.472a4.039 4.039 0 0 1 4.032 4.036 4.037 4.037 0 0 1-4.032 4.029 4.033 4.033 0 0 1 0-8.065M192.122 21.237a4.034 4.034 0 0 1 4.028 4.03 4.036 4.036 0 0 1-4.028 4.035 4.036 4.036 0 0 1-4.03-4.036 4.034 4.034 0 0 1 4.03-4.029M179.668 21.237a4.03 4.03 0 0 1 4.033 4.03 4.036 4.036 0 0 1-4.033 4.035 4.035 4.035 0 0 1-4.025-4.036 4.029 4.029 0 0 1 4.025-4.029M167.498 22.472a4.037 4.037 0 0 1 4.025 4.036 4.031 4.031 0 0 1-4.025 4.029c-2.223 0-4.04-1.807-4.04-4.03a4.047 4.047 0 0 1 4.04-4.035M155.68 24.871a4.034 4.034 0 0 1 4.032 4.036 4.027 4.027 0 0 1-4.033 4.022 4.027 4.027 0 0 1-4.032-4.022 4.034 4.034 0 0 1 4.032-4.036M144.32 28.399c2.226 0 4.025 1.799 4.025 4.025 0 2.223-1.8 4.029-4.025 4.029a4.03 4.03 0 0 1-4.032-4.029 4.025 4.025 0 0 1 4.032-4.025M133.454 32.985a4.03 4.03 0 1 1-.009 8.056 4.03 4.03 0 0 1 .01-8.056M123.153 38.559a4.027 4.027 0 1 1 .003 8.055 4.027 4.027 0 0 1-.003-8.055M113.522 45.05a4.028 4.028 0 0 1 4.025 4.036 4.02 4.02 0 0 1-4.025 4.022 4.02 4.02 0 0 1-4.025-4.022c0-2.23 1.8-4.036 4.025-4.036M104.526 52.423a4.028 4.028 0 1 1-4.025 4.036 4.033 4.033 0 0 1 4.025-4.036M96.306 60.643a4.023 4.023 0 0 1 4.03 4.029 4.029 4.029 0 0 1-4.03 4.025 4.027 4.027 0 0 1 0-8.054M88.933 69.568c2.226 0 4.033 1.8 4.033 4.03a4.032 4.032 0 0 1-4.033 4.024 4.027 4.027 0 0 1 0-8.054M82.372 79.2a4.033 4.033 0 0 1 4.025 4.035 4.025 4.025 0 0 1-8.05 0 4.03 4.03 0 0 1 4.025-4.036M76.762 89.465a4.031 4.031 0 0 1 4.03 4.036 4.024 4.024 0 0 1-4.03 4.022 4.023 4.023 0 0 1-4.025-4.022 4.03 4.03 0 0 1 4.025-4.036M72.141 100.33c2.222 0 4.025 1.814 4.025 4.047a4.027 4.027 0 0 1-8.054 0c0-2.233 1.803-4.046 4.029-4.046M68.578 111.655a4.038 4.038 0 0 1 4.029 4.036 4.03 4.03 0 0 1-4.03 4.022 4.03 4.03 0 0 1-4.024-4.022 4.037 4.037 0 0 1 4.025-4.036M66.144 123.473a4.036 4.036 0 0 1 4.032 4.036 4.03 4.03 0 0 1-8.058 0 4.035 4.035 0 0 1 4.026-4.036M64.838 135.644a4.036 4.036 0 0 1 4.033 4.036 4.03 4.03 0 0 1-4.033 4.029 4.033 4.033 0 0 1 0-8.065M296.368 135.644a4.036 4.036 0 0 1 4.033 4.036 4.029 4.029 0 0 1-8.058 0 4.035 4.035 0 0 1 4.025-4.036M294.78 122.485a4.038 4.038 0 0 1 4.037 4.04 4.031 4.031 0 0 1-4.036 4.028 4.04 4.04 0 0 1-4.036-4.028 4.047 4.047 0 0 1 4.036-4.04M291.712 109.856a4.033 4.033 0 0 1 4.032 4.029 4.033 4.033 0 0 1-4.032 4.028 4.038 4.038 0 0 1-4.036-4.028 4.038 4.038 0 0 1 4.036-4.03M287.231 97.826a4.027 4.027 0 0 1 4.025 4.029c0 2.222-1.799 4.029-4.025 4.029a4.035 4.035 0 0 1-4.032-4.03 4.035 4.035 0 0 1 4.032-4.028M281.446 86.502a4.033 4.033 0 0 1 4.028 4.036 4.026 4.026 0 0 1-4.028 4.021 4.03 4.03 0 0 1-4.036-4.021c0-2.23 1.81-4.036 4.036-4.036M274.46 75.989a4.036 4.036 0 0 1 4.036 4.029c0 2.23-1.81 4.028-4.035 4.028a4.033 4.033 0 0 1-4.033-4.028 4.037 4.037 0 0 1 4.033-4.03M266.347 66.358a4.027 4.027 0 0 1 4.025 4.04 4.018 4.018 0 0 1-4.025 4.018c-2.22 0-4.033-1.8-4.033-4.019a4.04 4.04 0 0 1 4.033-4.039M257.21 57.715a4.034 4.034 0 0 1 4.032 4.036 4.033 4.033 0 0 1-4.032 4.021 4.03 4.03 0 0 1 0-8.057M247.12 50.165a4.031 4.031 0 0 1 4.025 4.03 4.031 4.031 0 0 1-4.025 4.028 4.036 4.036 0 0 1-4.036-4.029 4.036 4.036 0 0 1 4.036-4.029M236.184 43.745a4.04 4.04 0 0 1 4.036 4.036 4.027 4.027 0 0 1-4.036 4.021 4.022 4.022 0 0 1-4.022-4.021c0-2.223 1.803-4.036 4.022-4.036M224.542 38.594a4.029 4.029 0 0 1 4.025 4.029 4.026 4.026 0 0 1-4.025 4.025 4.028 4.028 0 1 1 0-8.054M212.195 34.82a4.029 4.029 0 0 1 4.025 4.028 4.035 4.035 0 0 1-4.025 4.036 4.032 4.032 0 0 1 0-8.065M199.283 32.456a4.04 4.04 0 0 1 4.036 4.046 4.033 4.033 0 0 1-8.065 0c0-2.233 1.81-4.046 4.029-4.046M185.913 31.68a4.033 4.033 0 0 1 0 8.064c-2.22 0-4.033-1.813-4.033-4.025a4.04 4.04 0 0 1 4.033-4.04M172.507 32.456a4.04 4.04 0 0 1 4.036 4.046 4.03 4.03 0 0 1-4.036 4.022 4.03 4.03 0 0 1-4.025-4.022c0-2.233 1.806-4.046 4.025-4.046M159.63 34.82a4.032 4.032 0 1 1 0 8.064 4.029 4.029 0 0 1-4.025-4.029 4.03 4.03 0 0 1 4.026-4.036M147.283 38.594a4.027 4.027 0 1 1 .003 8.055 4.027 4.027 0 0 1-.003-8.055M135.606 43.745a4.032 4.032 0 0 1 4.029 4.029 4.032 4.032 0 0 1-8.065 0 4.036 4.036 0 0 1 4.036-4.03M124.705 50.165a4.026 4.026 0 1 1 0 8.054 4.027 4.027 0 1 1 0-8.054M114.616 57.715a4.035 4.035 0 0 1 4.036 4.036 4.029 4.029 0 1 1-4.036-4.036M105.479 66.358a4.031 4.031 0 0 1 4.025 4.04 4.022 4.022 0 0 1-4.025 4.018c-2.23 0-4.036-1.8-4.036-4.019a4.036 4.036 0 0 1 4.036-4.039M97.365 75.989a4.034 4.034 0 0 1 4.029 4.029 4.031 4.031 0 0 1-4.03 4.035 4.028 4.028 0 0 1-4.024-4.035c0-2.216 1.799-4.03 4.025-4.03M90.38 86.502a4.034 4.034 0 0 1 4.032 4.036 4.027 4.027 0 0 1-4.032 4.021 4.02 4.02 0 0 1-4.026-4.021c0-2.23 1.8-4.036 4.026-4.036M84.594 97.826a4.029 4.029 0 1 1-.007 8.058 4.029 4.029 0 0 1 .007-8.058M80.114 109.856a4.029 4.029 0 0 1 0 8.057 4.032 4.032 0 0 1-4.029-4.028 4.032 4.032 0 0 1 4.029-4.03M77.045 122.485a4.036 4.036 0 0 1 4.032 4.036 4.024 4.024 0 0 1-4.032 4.022 4.023 4.023 0 0 1-4.026-4.022 4.035 4.035 0 0 1 4.026-4.036M75.457 135.644a4.031 4.031 0 1 1 0 8.065 4.028 4.028 0 0 1-4.022-4.03c0-2.222 1.803-4.035 4.022-4.035"/></g><g fill="#4c4d4f"><path d="M-.003 178.19h16.916c14.26 0 24.113 9.786 24.113 22.556v.127c0 12.767-9.853 22.684-24.113 22.684H-.003zm7.973 7.256v30.85h8.943c9.529 0 15.752-6.413 15.752-15.292v-.13c0-8.88-6.223-15.428-15.752-15.428zM48.54 178.19h7.973v45.367H48.54zM66.073 178.19h17.89c10.629 0 17.24 6.025 17.24 15.165v.131c0 10.174-8.167 15.49-18.15 15.49h-9.007v14.581h-7.973zm17.24 23.59c6.03 0 9.79-3.373 9.79-8.104v-.127c0-5.312-3.827-8.103-9.79-8.103h-9.267v16.334zM106.078 204.295V178.18h7.973v25.795c0 8.425 4.343 12.894 11.473 12.894 7.066 0 11.405-4.212 11.405-12.573V178.18h7.973v25.728c0 13.547-7.648 20.352-19.509 20.352-11.793 0-19.315-6.805-19.315-19.964M164.464 185.563h-14.387v-7.388h36.813v7.388h-14.387v37.98h-8.04ZM208.773 177.872h7.39l19.96 45.692H227.7l-4.604-10.954h-21.453l-4.667 10.954h-8.163zm11.409 27.676-7.846-18.147-7.775 18.147zM241.37 178.19h16.92c14.255 0 24.108 9.786 24.108 22.556v.127c0 12.767-9.853 22.684-24.109 22.684h-16.92Zm7.973 7.256v30.85h8.946c9.525 0 15.748-6.413 15.748-15.292v-.13c0-8.88-6.223-15.428-15.748-15.428zM287.443 200.979v-.13c0-12.768 9.85-23.46 23.784-23.46 13.935 0 23.658 10.562 23.658 23.333v.127c0 12.77-9.853 23.463-23.785 23.463-13.938 0-23.657-10.562-23.657-23.333m39.08 0v-.13c0-8.813-6.416-16.137-15.423-16.137-9.01 0-15.3 7.194-15.3 16.01v.127c0 8.815 6.42 16.072 15.427 16.072 9.01 0 15.297-7.13 15.297-15.942M338.949 216.925l4.798-5.701c4.342 3.757 8.749 5.895 14.323 5.895 4.928 0 8.036-2.332 8.036-5.705v-.127c0-3.242-1.813-4.992-10.238-6.935-9.659-2.336-15.102-5.186-15.102-13.547v-.13c0-7.776 6.48-13.156 15.49-13.156 6.611 0 11.86 2.007 16.461 5.705l-4.276 6.025c-4.085-3.044-8.17-4.664-12.315-4.664-4.668 0-7.388 2.4-7.388 5.38v.127c0 3.503 2.071 5.056 10.824 7.13 9.588 2.332 14.517 5.768 14.517 13.286v.13c0 8.488-6.678 13.547-16.203 13.547-6.936 0-13.484-2.399-18.927-7.26M53.514 247.722h5.225l14.118 32.312H66.9l-3.257-7.747h-15.17l-3.301 7.747h-5.775zm8.068 19.573-5.549-12.838-5.496 12.838zM79.232 247.934H93.53c4.036 0 7.197 1.193 9.26 3.207 1.694 1.743 2.657 4.127 2.657 6.921v.092c0 5.27-3.16 8.435-7.606 9.716l8.66 12.146H99.81l-7.882-11.183H84.87v11.183h-5.637zm13.889 15.903c4.032 0 6.6-2.11 6.6-5.362v-.092c0-3.44-2.476-5.316-6.646-5.316h-8.206v10.77zM111.829 264.091V264c0-8.982 6.875-16.592 16.545-16.592 5.595 0 9.031 1.556 12.33 4.354l-3.574 4.261c-2.476-2.11-4.903-3.436-8.985-3.436-5.91 0-10.404 5.18-10.404 11.321V264c0 6.597 4.354 11.458 10.908 11.458 3.024 0 5.775-.963 7.747-2.43v-6.005h-8.205v-4.904h13.66v13.477c-3.162 2.702-7.702 4.995-13.385 4.995-10.037 0-16.637-7.15-16.637-16.5M150.07 247.934h23.788v5.041h-18.15v8.34h16.086v5.045h-16.086v8.615h18.38v5.041H150.07zM181.609 247.934h5.224l17.191 22.183v-22.183h5.543v32.082h-4.72l-17.693-22.825v22.825h-5.545zM226.553 253.155h-10.178v-5.224h26.035v5.224h-10.174v26.861h-5.683ZM249.59 247.934h5.637v32.082h-5.637zM264.653 247.934h5.225l17.187 22.183v-22.183h5.546v32.082h-4.72l-17.692-22.825v22.825h-5.546ZM313.055 247.722h5.228l14.115 32.312h-5.959l-3.252-7.747h-15.173l-3.303 7.747h-5.771zm8.068 19.573-5.546-12.838-5.5 12.838z"/></g></svg>