<svg xmlns="http://www.w3.org/2000/svg" width="952.54" height="910.659" viewBox="0 0 252.023 240.942"><defs><clipPath id="a"><path d="M0 .001h595.28v841.89H0Z"/></clipPath></defs><g clip-path="url(#a)" transform="matrix(3.5278 0 0 -3.5278 -669.07 1898.995)"><path fill="#666364" d="m189.71 485.48 1.166 1.387c1.06-.913 2.133-1.435 3.489-1.435 1.2 0 1.958.569 1.958 1.389v.03c0 .791-.442 1.216-2.493 1.692-2.355.566-3.679 1.262-3.679 3.298v.031c0 1.893 1.576 3.206 3.773 3.206 1.61 0 2.889-.489 4.009-1.391l-1.04-1.47c-.997.743-1.992 1.139-3.002 1.139-1.138 0-1.8-.586-1.8-1.313v-.028c0-.854.504-1.232 2.638-1.735 2.336-.569 3.536-1.405 3.536-3.24v-.028c0-2.07-1.629-3.303-3.946-3.303a6.804 6.804 0 0 0-4.609 1.771M200.85 494.92h8.191v-1.738h-6.248v-2.873h5.537v-1.737h-5.537v-2.965h6.328v-1.738h-8.271ZM211.72 494.92h1.799l5.92-7.641v7.641h1.909v-11.051h-1.63l-6.09 7.863v-7.863h-1.908ZM231.18 488.26l-1.911 4.421-1.892-4.421Zm-2.78 6.744h1.803l4.859-11.131h-2.052l-1.119 2.666h-5.225l-1.14-2.666h-1.984zM239.19 493.15v-7.513h2.177c2.32 0 3.837 1.564 3.837 3.723v.031c0 2.166-1.517 3.759-3.837 3.759Zm-1.944 1.769h4.121c3.473 0 5.872-2.383 5.872-5.495v-.033c0-3.104-2.399-5.523-5.872-5.523h-4.121zM258.92 489.36v.031c0 2.146-1.564 3.937-3.754 3.937-2.195 0-3.726-1.758-3.726-3.904v-.033c0-2.146 1.564-3.912 3.754-3.912 2.194 0 3.726 1.735 3.726 3.881m-9.52 0v.031c0 3.112 2.404 5.717 5.794 5.717 3.395 0 5.764-2.572 5.764-5.684v-.033c0-3.104-2.401-5.714-5.792-5.714-3.398 0-5.766 2.574-5.766 5.683M195.12 473.23l-1.351 3.124-1.343-3.124Zm-1.967 4.766h1.276l3.436-7.87h-1.452l-.791 1.888h-3.697l-.803-1.888h-1.408zM202.8 474.07c.98 0 1.608.512 1.608 1.304v.026c0 .836-.605 1.292-1.618 1.292h-1.998v-2.622Zm-3.382 3.871h3.481c.985 0 1.754-.29 2.256-.779.411-.426.646-1.007.646-1.683v-.025c0-1.284-.768-2.052-1.852-2.368l2.109-2.96h-1.63l-1.918 2.728h-1.718v-2.728h-1.374zM207.36 474.01v.023c0 2.191 1.677 4.04 4.032 4.04 1.361 0 2.197-.38 3-1.058l-.867-1.04c-.606.515-1.198.834-2.192.834-1.437 0-2.534-1.259-2.534-2.754v-.022c0-1.606 1.061-2.79 2.657-2.79.739 0 1.406.236 1.888.593v1.46h-1.998v1.196h3.328v-3.281a4.977 4.977 0 0 0-3.262-1.216c-2.444 0-4.052 1.737-4.052 4.015M216.67 477.94h5.795v-1.226h-4.417v-2.034h3.916v-1.225h-3.916v-2.098h4.471v-1.229h-5.849ZM224.36 477.94h1.274l4.185-5.398v5.398h1.349v-7.812h-1.149l-4.308 5.564v-5.564h-1.351ZM235.31 476.67h-2.477v1.271h6.338v-1.271h-2.477v-6.545h-1.384ZM240.92 477.94h1.374v-7.815h-1.374zM244.59 477.94h1.271l4.186-5.398v5.398h1.351v-7.812h-1.151l-4.306 5.564v-5.564h-1.351ZM258.35 473.23l-1.348 3.124-1.343-3.124Zm-1.964 4.766h1.276l3.433-7.87h-1.452l-.791 1.888h-3.697l-.803-1.888h-1.405z"/><path fill="#b7bbbc" d="M248.46 503.14c-1.126 0-2.034.91-2.034 2.034a2.032 2.032 0 1 0 4.065 0 2.032 2.032 0 0 0-2.031-2.034M247.28 508.29a2.031 2.031 0 1 0 .004 4.062 2.031 2.031 0 0 0-.004-4.062M245.02 512.94c-1.119 0-2.029.91-2.029 2.034a2.033 2.033 0 1 0 2.029-2.034M241.84 516.94a2.027 2.027 0 0 0-2.031 2.034c0 1.119.905 2.029 2.031 2.029a2.033 2.033 0 0 0 0-4.063M237.86 520.14a2.034 2.034 0 0 0 0 4.066 2.033 2.033 0 1 0 0-4.066M233.23 522.42a2.034 2.034 0 1 0 2.034 2.036 2.037 2.037 0 0 0-2.034-2.036M228.09 523.63a2.033 2.033 0 1 0-.005 4.065 2.033 2.033 0 0 0 .005-4.065M222.65 523.63c-1.126 0-2.038.91-2.038 2.034a2.034 2.034 0 0 0 4.067 0 2.03 2.03 0 0 0-2.029-2.034M217.51 522.42a2.036 2.036 0 0 0-2.031 2.041 2.033 2.033 0 1 0 2.031-2.041M212.88 520.14a2.03 2.03 0 0 0-2.031 2.034 2.03 2.03 0 0 0 2.031 2.033 2.034 2.034 0 0 0 0-4.067M208.9 516.94a2.03 2.03 0 0 0-2.031 2.036 2.03 2.03 0 0 0 4.062 0 2.032 2.032 0 0 0-2.031-2.036M205.71 512.94c-1.122 0-2.027.91-2.027 2.034a2.03 2.03 0 1 0 4.061 0 2.032 2.032 0 0 0-2.034-2.034M203.46 508.29c-1.122 0-2.034.91-2.034 2.029a2.034 2.034 0 0 0 4.069 0 2.034 2.034 0 0 0-2.035-2.029M202.28 503.14c-1.122 0-2.031.91-2.031 2.034a2.032 2.032 0 1 0 4.065 0 2.032 2.032 0 0 0-2.034-2.034M243.13 503.14a2.034 2.034 0 1 0 0 4.069 2.034 2.034 0 0 0 0-4.069M241.42 508.59a2.033 2.033 0 0 0 0 4.063 2.033 2.033 0 1 0 0-4.063M238.18 513.12a2.035 2.035 0 0 0-2.031 2.034c0 1.119.912 2.033 2.031 2.033a2.037 2.037 0 0 0 2.034-2.033 2.036 2.036 0 0 0-2.034-2.034M233.71 516.45a2.034 2.034 0 1 0 .005 4.067 2.034 2.034 0 0 0-.005-4.067M228.31 518.27a2.032 2.032 0 1 0 .002 4.062 2.032 2.032 0 0 0-.002-4.062M222.42 518.27a2.033 2.033 0 0 0 0 4.063 2.03 2.03 0 0 0 2.031-2.029 2.027 2.027 0 0 0-2.031-2.034M217.02 516.45a2.031 2.031 0 0 0-2.027 2.036 2.032 2.032 0 1 0 2.027-2.036M212.55 513.12a2.033 2.033 0 0 0-2.031 2.034c0 1.119.909 2.036 2.031 2.036a2.041 2.041 0 0 0 2.034-2.036 2.038 2.038 0 0 0-2.034-2.034M209.31 508.59a2.03 2.03 0 1 0 0 4.064 2.03 2.03 0 0 0 0-4.064M207.59 503.14a2.033 2.033 0 1 0 .003 4.065 2.033 2.033 0 0 0-.003-4.065"/><path fill="#6ba3e4" d="M237.78 503.14c-1.122 0-2.031.91-2.031 2.034a2.032 2.032 0 1 0 2.031-2.034M235.39 508.31a2.035 2.035 0 0 0-2.034 2.036c0 1.12.908 2.03 2.034 2.03a2.034 2.034 0 0 0 0-4.066M231.05 511.89a2.034 2.034 0 0 0-2.031 2.036c0 1.12.907 2.034 2.031 2.034a2.033 2.033 0 0 0 2.031-2.034 2.033 2.033 0 0 0-2.031-2.036M225.39 513.23a2.033 2.033 0 1 0-.004 4.066 2.033 2.033 0 0 0 .004-4.066M219.72 511.89a2.033 2.033 0 1 0 0 4.066 2.03 2.03 0 0 0 2.028-2.032c0-1.12-.905-2.034-2.028-2.034M215.38 508.31a2.032 2.032 0 0 0 0 4.066 2.033 2.033 0 0 0 0-4.066M212.99 503.14a2.03 2.03 0 0 0-2.031 2.034 2.03 2.03 0 0 0 2.031 2.033 2.034 2.034 0 0 0 0-4.067M232.33 503.14a2.034 2.034 0 1 0 .006 4.068 2.034 2.034 0 0 0-.006-4.068M228.37 507.32a2.037 2.037 0 0 0-2.031 2.036 2.034 2.034 0 1 0 2.031-2.036M222.41 507.33a2.036 2.036 0 0 0-2.031 2.036 2.03 2.03 0 0 0 2.031 2.031 2.032 2.032 0 0 0 2.036-2.031 2.037 2.037 0 0 0-2.036-2.036M218.45 503.14c-1.122 0-2.031.91-2.031 2.034a2.032 2.032 0 1 0 2.031-2.034M259.05 503.14a2.033 2.033 0 1 0-.002 4.066 2.033 2.033 0 0 0 .002-4.066M258.2 508.52a2.031 2.031 0 0 0 0 4.063c1.122 0 2.034-.91 2.034-2.032a2.034 2.034 0 0 0-2.034-2.031M256.54 513.58a2.036 2.036 0 0 0 0 4.07 2.034 2.034 0 0 0 0-4.07M254.15 518.25c-1.122 0-2.034.91-2.034 2.036a2.032 2.032 0 1 0 2.034-2.036M251.08 522.47a2.03 2.03 0 1 0 0 4.063 2.035 2.035 0 0 0 2.034-2.029 2.034 2.034 0 0 0-2.034-2.034M247.42 526.16a2.034 2.034 0 0 0 0 4.066 2.036 2.036 0 0 0 2.034-2.03 2.035 2.035 0 0 0-2.034-2.036M243.22 529.25a2.033 2.033 0 1 0-.001 4.067 2.033 2.033 0 0 0 .001-4.067M238.56 531.67a2.03 2.03 0 0 0-2.028 2.034c0 1.123.904 2.033 2.028 2.033a2.034 2.034 0 0 0 0-4.067M233.52 533.35a2.034 2.034 0 0 0-2.031 2.034 2.031 2.031 0 1 0 4.065 0c0-1.12-.911-2.034-2.034-2.034M228.15 534.23c-1.124 0-2.034.91-2.034 2.036a2.036 2.036 0 0 0 4.072 0 2.04 2.04 0 0 0-2.038-2.036M222.59 534.23c-1.126 0-2.028.91-2.028 2.034a2.033 2.033 0 0 0 4.064 0 2.036 2.036 0 0 0-2.036-2.034M217.23 533.35a2.036 2.036 0 0 0 0 4.07 2.037 2.037 0 0 0 2.034-2.034 2.04 2.04 0 0 0-2.034-2.036M212.18 531.67a2.032 2.032 0 1 0-.004 4.064 2.032 2.032 0 0 0 .004-4.064M207.52 529.24a2.033 2.033 0 0 0-2.029 2.034 2.033 2.033 0 1 0 4.067 0 2.04 2.04 0 0 0-2.038-2.034M203.32 526.15a2.032 2.032 0 0 0-2.027 2.034 2.03 2.03 0 0 0 2.027 2.033c1.126 0 2.041-.91 2.041-2.033a2.04 2.04 0 0 0-2.041-2.034M199.66 522.46a2.032 2.032 0 1 0 0 4.066c1.119 0 2.038-.91 2.038-2.03a2.04 2.04 0 0 0-2.038-2.036M196.6 518.25a2.03 2.03 0 0 0-2.031 2.036 2.03 2.03 0 0 0 2.031 2.031 2.034 2.034 0 0 0 0-4.067M194.2 513.57a2.04 2.04 0 0 0-2.034 2.036c0 1.12.915 2.034 2.034 2.034a2.039 2.039 0 0 0 2.035-2.034 2.039 2.039 0 0 0-2.035-2.036M192.54 508.52a2.032 2.032 0 0 0-2.031 2.034 2.03 2.03 0 0 0 2.031 2.033c1.119 0 2.034-.91 2.034-2.033a2.038 2.038 0 0 0-2.034-2.034M191.69 503.14a2.034 2.034 0 1 0 0 4.069 2.034 2.034 0 0 0 0-4.069M253.77 503.14c-1.122 0-2.031.91-2.031 2.034a2.032 2.032 0 1 0 4.065 0 2.032 2.032 0 0 0-2.034-2.034M252.78 508.43a2.033 2.033 0 0 0-2.031 2.034c0 1.122.907 2.029 2.031 2.029a2.031 2.031 0 1 0 0-4.063M250.87 513.32a2.03 2.03 0 1 0 2.031 2.029 2.03 2.03 0 0 0-2.031-2.029M248.13 517.73a2.034 2.034 0 0 0 0 4.07 2.034 2.034 0 0 0 0-4.07M244.66 521.55a2.033 2.033 0 1 0-.002 4.066 2.033 2.033 0 0 0 .002-4.066M240.55 524.69a2.033 2.033 0 0 0-2.031 2.034c0 1.126.907 2.036 2.031 2.036a2.035 2.035 0 0 0 0-4.07M235.91 527.06a2.034 2.034 0 0 0 0 4.066c1.123 0 2.036-.91 2.036-2.03a2.038 2.038 0 0 0-2.036-2.036M230.82 528.55a2.036 2.036 0 0 0-2.034 2.034 2.035 2.035 0 0 0 4.072 0 2.039 2.039 0 0 0-2.038-2.034M225.38 529.06c-1.122 0-2.034.91-2.034 2.034a2.033 2.033 0 1 0 2.034-2.034M219.94 528.55a2.03 2.03 0 1 0 0 4.063c1.123 0 2.034-.91 2.034-2.029a2.035 2.035 0 0 0-2.034-2.034M214.86 527.06a2.037 2.037 0 0 0-2.036 2.036 2.03 2.03 0 0 0 2.036 2.03 2.03 2.03 0 0 0 2.031-2.03 2.036 2.036 0 0 0-2.031-2.036M210.21 524.69a2.036 2.036 0 1 0-.005 4.069 2.036 2.036 0 0 0 .005-4.069M206.1 521.55a2.033 2.033 0 1 0 0 4.066 2.039 2.039 0 0 0 2.038-2.032 2.037 2.037 0 0 0-2.038-2.034M202.63 517.73a2.03 2.03 0 0 0-2.027 2.036c0 1.12.908 2.034 2.027 2.034a2.034 2.034 0 0 0 0-4.07M199.89 513.32c-1.124 0-2.035.91-2.035 2.034a2.033 2.033 0 0 0 4.064 0 2.03 2.03 0 0 0-2.029-2.034M197.98 508.43a2.031 2.031 0 1 0 0 4.063 2.032 2.032 0 0 0 2.035-2.029c0-1.12-.912-2.034-2.035-2.034M196.99 503.14c-1.126 0-2.034.91-2.034 2.034a2.032 2.032 0 1 0 4.065 0 2.031 2.031 0 0 0-2.031-2.034"/></g></svg>